<svg width="84" height="84" fill="none" xmlns="http://www.w3.org/2000/svg"><g clip-path="url(#clip0_1_5792)"><path d="M23.87 25.927a.5.5 0 000 1h11.8c.505 0 .915.41.915.916a.5.5 0 001 0 1.916 1.916 0 00-1.915-1.916h-11.8zm23.596 17.989h.172l.136-.106.533-.416.193-.15V13.5a.5.5 0 00-.533-.499V7.08c0-.506.41-.916.915-.916H75.31c.506 0 .916.41.916.916v73.59H61.18V45.747H36.584V80.67h-8.438v-5.635a1.916 1.916 0 00-1.916-1.916h-7.55a1.916 1.916 0 00-1.916 1.916v5.635H8.327V27.842c0-.506.41-.916.915-.916H21.54V14.629c0-.506.41-.916.915-.916h4.748V7.08c0-.506.41-.916.915-.916h6.635V1.416a.916.916 0 111.831 0v4.747h6.635c.506 0 .916.41.916.916v6.634H47.5v29.043l-.205.16h-9.71v-3.72h3.747a.5.5 0 000-1h-4.748v5.72h10.882zm12.714 2.831V80.67H37.584V46.747H60.18zM27.146 75.034v5.635h-2.775v-1.86a1.916 1.916 0 10-3.832 0v1.86h-2.775v-5.635c0-.506.41-.916.916-.916h7.55c.506 0 .916.41.916.916zm9.438-39.169a.5.5 0 101 0v-4.219h3.748a.5.5 0 100-1h-4.748v5.22zM43 77.5V51.073m6 26.354V51m6 26.427V51" stroke="#05C2DF" stroke-linecap="round"/><path d="M57.323 16.517a1.166 1.166 0 11-2.332 0V14.63a1.166 1.166 0 112.332 0v1.887zm5.663 0a1.166 1.166 0 11-2.332 0V14.63a1.166 1.166 0 112.332 0v1.887zm5.664 0a1.166 1.166 0 11-2.332 0V14.63a1.166 1.166 0 112.332 0v1.887zm-11.327 9.438a1.166 1.166 0 11-2.332 0v-1.888a1.166 1.166 0 112.332 0v1.888zm5.663 0a1.166 1.166 0 11-2.332 0v-1.888a1.166 1.166 0 112.332 0v1.888zm5.664 0a1.166 1.166 0 11-2.332 0v-1.888a1.166 1.166 0 112.332 0v1.888zm-11.327 9.438a1.166 1.166 0 11-2.332 0v-1.888a1.166 1.166 0 112.332 0v1.888zm5.663 0a1.166 1.166 0 11-2.332 0v-1.888a1.166 1.166 0 112.332 0v1.888zm5.664 0a1.166 1.166 0 11-2.332 0v-1.888a1.166 1.166 0 112.332 0v1.888zm-50.967 3.776a1.166 1.166 0 11-2.331 0V37.28a1.166 1.166 0 112.331 0v1.888zm5.663 0a1.166 1.166 0 11-2.331 0V37.28a1.166 1.166 0 112.331 0v1.888zm5.662 0a1.165 1.165 0 11-2.331 0V37.28a1.166 1.166 0 112.331 0v1.888zm-11.325 9.438a1.166 1.166 0 11-2.331 0V46.72a1.166 1.166 0 112.331 0v1.888zm5.663 0a1.166 1.166 0 11-2.331 0V46.72a1.166 1.166 0 112.331 0v1.888zm5.662 0a1.165 1.165 0 11-2.331 0V46.72a1.166 1.166 0 112.331 0v1.888zm-11.325 9.438a1.166 1.166 0 11-2.331 0v-1.888a1.166 1.166 0 112.331 0v1.888zm5.663 0a1.166 1.166 0 11-2.331 0v-1.888a1.166 1.166 0 112.331 0v1.888zm5.662 0a1.165 1.165 0 11-2.331 0v-1.888a1.166 1.166 0 112.331 0v1.888zm-11.325 9.438a1.166 1.166 0 11-2.331 0v-1.888a1.166 1.166 0 112.331 0v1.888zm5.663 0a1.166 1.166 0 11-2.331 0v-1.888a1.166 1.166 0 112.331 0v1.888zm5.662 0a1.165 1.165 0 11-2.331 0v-1.888a1.166 1.166 0 112.331 0v1.888zM68.65 44.832a1.166 1.166 0 11-2.332 0v-1.888a1.166 1.166 0 112.332 0v1.888zm0 9.438a1.166 1.166 0 11-2.332 0v-1.888a1.166 1.166 0 112.332 0v1.888zm0 9.438a1.166 1.166 0 11-2.332 0V61.82a1.166 1.166 0 112.332 0v1.888zm0 9.438a1.166 1.166 0 11-2.332 0v-1.888a1.166 1.166 0 112.332 0v1.888z" fill="#05C2DF" stroke="#05040B" stroke-width=".5" stroke-linecap="round"/><path d="M41.326 20H30" stroke="#05C2DF" stroke-linecap="round"/><path fill-rule="evenodd" clip-rule="evenodd" d="M56 42a1 1 0 00-1 1v1h2v-1a1 1 0 00-1-1zm6 0a1 1 0 00-1 1v1h2v-1a1 1 0 00-1-1z" fill="#05C2DF"/></g><defs><clipPath id="clip0_1_5792"><path fill="#fff" d="M0 0h84v84H0z"/></clipPath></defs></svg>